{"title":"NCAA_WOMEN_OSU_VS_UCF_Second_Half_480p_20110319_TTL","uid":6257337,"size":847446339,"categoryP":"video","categoryS":"tv_shows","magnet":"?xt=urn:btih:62c37e1478448d80038d5fe142632a9a80c274d4&amp;dn=NCAA_WOMEN_OSU_VS_UCF_Second_Half_480p_20110319_TTL&amp;tr=udp%3A%2F%2Ftracker.openbittorrent.com%3A80&amp;tr=udp%3A%2F%2Fopen.demonii.com%3A1337&amp;tr=udp%3A%2F%2Ftracker.coppersurfer.tk%3A6969&amp;tr=udp%3A%2F%2Fexodus.desync.com%3A6969","seeders":0,"leechers":1,"uploader":"thetorrentlord","files":2,"time":1300627330,"description":"This is from a SD broadcast.  Enjoy and please share.\t\t\t\t\t\t\t\n\n\t\t\t\t\t\t\t\t\t\t\t\t\t\n\n\t\t\t\t\t\t\t\t\t\t\t\t\t\n\n\t\t\t\t\t\t\t\t\t\t\t\t\t\n\n\t\t\t\t\t\t\t\t\t\t\t\t\t\n\n******************************************************************************************************\n\n******************************************************************************************************\t\n\n\t\t\t\t\t\t\t\t\t\t\t\t\t\n\n\t\t\t\t\t\t\t\t\t\t\t\t\t\n\n\t\t\t\t\t\t\t\t\t\t\t\t\t\n\n\t\t\t\t\t\t\t\n\nOSU_VS_UCF_WOMEN_Second_Half_480p_20110319_TTL.avi\nFormat                           : AVI\nFormat/Info                      : Audio Video Interleave\nFile size                        : 808 MiB\nDuration                         : 1h 14mn\nOverall bit rate                 : 1 510 Kbps\nMovie name                       : OSU_VS_UCF_WOMEN_Second_Half_480p_20110319_TTL.mpg\nDirector                         : created.with.SUPER(C).v2010.bld.37\nWriting application              : SUPER(C)   \n\nVideo\nID                               : 0\nFormat                           : MPEG-4 Visual\nFormat profile                   : Simple@L3\nFormat settings, BVOP            : No\nFormat settings, QPel            : No\nFormat settings, GMC             : No warppoints\nFormat settings, Matrix          : Default (H.263)\nCodec ID                         : XVID\nCodec ID/Hint                    : XviD\nDuration                         : 37mn 25s\nBit rate                         : 2 879 Kbps\nWidth                            : 624 pixels\nHeight                           : 352 pixels\nDisplay aspect ratio             : 16:9\nFrame rate                       : 23.976 fps\nColor space                      : YUV\nChroma subsampling               : 4:2:0\nBit depth                        : 8 bits\nScan type                        : Progressive\nBits/(Pixel*Frame)               : 0.547\nStream size                      : 771 MiB (95%)\nWriting library                  : XviD 1.1.2 (UTC 2006-11-01)\n\nAudio\nID                               : 1\nFormat                           : MPEG Audio\nFormat version                   : Version 2\nFormat profile                   : Layer 3\nMode                             : Joint stereo\nMode extension                   : MS Stereo\nCodec ID                         : 55\nCodec ID/Hint                    : MP3\nDuration                         : 1h 14mn\nBit rate mode                    : Constant\nBit rate                         : 128 Kbps\nChannel(s)                       : 2 channels\nSampling rate                    : 22.05 KHz\nStream size                      : 34.3 MiB (4%)\nAlignment                        : Aligned on interleaves\nInterleave, duration             : 26 ms (0.63 video frame)\nInterleave, preload duration     : 26 ms\n\n\n\n\n\n\n","torrent":{"xt":"urn:btih:62c37e1478448d80038d5fe142632a9a80c274d4","amp;dn":"NCAA_WOMEN_OSU_VS_UCF_Second_Half_480p_20110319_TTL","amp;tr":["udp%3A%2F%2Ftracker.openbittorrent.com%3A80","udp%3A%2F%2Fopen.demonii.com%3A1337","udp%3A%2F%2Ftracker.coppersurfer.tk%3A6969","udp%3A%2F%2Fexodus.desync.com%3A6969"],"infoHash":"62c37e1478448d80038d5fe142632a9a80c274d4","infoHashBuffer":{"type":"Buffer","data":[98,195,126,20,120,68,141,128,3,141,95,225,66,99,42,154,128,194,116,212]},"announce":[],"urlList":[]}}